<svg width="745" height="726" viewBox="0 0 745 726" fill="none" xmlns="http://www.w3.org/2000/svg">
<path d="M171.787 29.0111C238.397 -11.5519 332.067 -0.111051 386.188 56.053C424.697 95.5759 448.635 154.86 501.715 168.381C533.979 176.702 568.324 163.181 599.548 151.74C631.812 140.299 668.239 131.979 697.381 148.62C727.564 165.261 740.053 203.744 737.972 238.066C735.89 272.389 721.319 304.631 709.871 336.873C698.422 369.116 689.055 404.478 698.422 437.761C706.748 471.043 731.727 498.085 741.094 531.368C754.624 578.171 731.727 632.255 692.177 659.297C652.628 687.379 597.466 690.499 551.672 673.858C505.878 657.217 468.41 620.814 444.472 578.171C429.901 552.169 417.411 522.007 392.433 508.486C365.372 493.925 332.067 500.165 303.966 513.686C275.865 526.167 249.846 544.889 219.663 552.169C178.032 562.57 130.156 550.089 98.9328 519.927C67.7094 489.764 55.2201 441.921 65.6279 400.318C71.8725 373.276 87.4842 349.354 97.892 323.352C119.748 267.188 84.3619 219.345 90.6066 163.181C95.8105 108.057 125.993 57.0931 171.787 29.0111ZM529.816 122.618C546.468 125.738 565.202 116.377 573.528 101.816C609.956 36.2916 472.573 11.3298 493.388 90.3755C498.592 107.017 513.163 120.538 529.816 122.618ZM245.683 724.822C262.335 727.942 281.069 718.581 289.396 704.02C325.823 638.495 188.44 613.534 209.255 692.579C214.459 708.18 229.03 721.701 245.683 724.822Z" fill="#78CED6"/>
<path d="M540.223 704.02C500.674 704.02 459.042 688.419 424.697 659.297C379.943 621.854 351.842 568.81 333.108 527.207L329.986 519.927C312.292 480.404 293.558 438.801 256.09 422.16C225.908 407.599 191.562 412.799 155.135 419.039C120.789 425.28 82.2801 431.52 47.9344 417.999C28.1595 409.679 10.4663 390.957 3.18082 370.156C-2.02308 354.555 -0.982298 337.914 7.34394 325.433C8.38472 323.353 11.5071 322.312 14.6294 323.353C16.711 324.393 17.7517 327.513 16.711 330.633C8.38472 344.154 10.4663 357.675 13.5886 367.036C19.8333 384.717 34.4042 401.358 52.0975 408.639C83.3209 421.12 118.707 414.879 154.094 408.639C191.562 402.398 229.03 397.198 261.294 412.799C301.885 431.52 322.7 476.244 340.393 515.767L343.516 523.047C362.25 563.61 389.31 614.574 431.982 650.976C475.695 687.379 530.856 700.9 575.61 688.419C626.608 673.858 661.994 619.774 650.546 572.971C644.301 549.049 628.69 528.247 613.078 508.486C608.915 503.286 605.792 499.125 601.629 493.925C575.61 458.562 566.243 427.36 574.569 400.318C579.773 382.637 592.262 369.116 603.711 355.595C605.792 352.475 608.915 350.395 610.996 347.274C627.649 327.513 634.934 309.832 631.812 294.23C626.608 266.148 592.262 253.667 562.08 256.788C548.549 257.828 535.019 261.988 521.489 265.108C504.837 269.269 487.143 274.469 468.409 274.469C427.819 275.509 386.188 253.667 348.72 215.185C331.026 196.463 316.456 176.702 301.885 155.9C290.436 140.299 278.987 124.698 266.498 110.137C232.152 70.6142 195.725 47.7325 159.298 42.5322C112.463 36.2917 62.5053 63.3337 42.7305 105.977C21.9149 148.62 32.3226 203.744 66.6684 237.026C68.7499 239.106 68.7499 242.227 66.6684 244.307C64.5868 246.387 61.4645 246.387 59.3829 244.307C21.9149 208.944 10.4663 148.62 32.3227 101.816C54.179 55.0131 108.3 25.891 160.339 32.1314C199.888 37.3318 237.356 61.2535 273.784 102.857C286.273 117.418 298.762 134.059 310.211 149.66C324.782 169.421 339.353 189.183 356.005 207.904C375.78 228.706 416.37 264.068 466.328 264.068C467.369 264.068 467.369 264.068 468.409 264.068C485.062 264.068 501.714 259.908 519.408 254.708C532.938 251.587 547.509 247.427 562.08 245.347C597.466 242.227 637.016 257.828 643.26 292.15C646.383 310.872 639.097 330.633 620.363 353.515C618.282 356.635 615.159 359.755 613.078 361.835C602.67 374.316 591.221 387.837 586.018 403.438C578.732 427.36 588.099 455.442 612.037 487.684C615.159 492.885 619.323 497.045 623.486 502.246C640.138 523.047 656.791 544.889 663.035 570.89C675.525 622.894 637.016 682.179 580.814 698.82C567.283 702.98 553.753 704.02 540.223 704.02ZM608.915 68.5341C619.323 49.8127 617.241 30.0513 603.711 16.5303C586.018 -0.110928 554.794 -5.31131 535.019 6.12952C525.652 11.3299 511.081 24.8509 519.408 56.0532C524.612 74.7745 540.223 89.3356 558.957 92.4558C561.039 92.4558 563.12 93.4959 566.243 93.4959C583.936 92.4558 600.588 83.0951 608.915 68.5341ZM562.08 82.055C547.509 79.9749 533.979 67.494 530.856 52.9329C525.652 35.2516 529.815 21.7307 541.264 15.4902C556.876 6.12953 582.895 10.2898 597.466 24.8509C604.752 32.1314 612.037 44.6123 600.588 64.3738C593.303 75.8146 576.651 84.1352 562.08 82.055ZM283.151 694.66C281.069 694.66 277.947 694.66 275.865 693.619C257.131 690.499 240.479 675.938 236.316 657.217C227.989 627.055 242.56 613.534 251.927 607.293C271.702 595.852 302.925 601.053 320.619 617.694C335.19 631.215 336.23 649.936 325.823 669.698C317.496 684.259 299.803 694.66 283.151 694.66ZM277.947 683.219C292.518 685.299 309.17 678.018 316.456 664.497C326.863 645.776 320.619 632.255 312.292 624.974C298.762 611.453 271.702 607.293 256.09 615.614C244.642 622.894 240.479 635.375 245.683 653.056C249.846 669.698 263.376 681.139 277.947 683.219Z" fill="white"/>
</svg>
