<svg width="512" height="396" viewBox="0 0 512 396" fill="none" xmlns="http://www.w3.org/2000/svg">
<path d="M108.571 88.047C153.571 57.3247 204.286 26.6024 257.143 11.5985C310 -3.4054 368.571 -2.69093 417.857 20.8866C467.143 44.4642 505.714 93.7628 510.714 148.063C515 203.791 480.714 260.949 427.857 276.668C379.286 290.957 319.286 273.095 282.143 307.39C257.857 330.253 252.143 369.549 223.571 387.411C194.286 405.987 155 390.983 127.857 368.834C87.8571 335.969 61.4285 286.67 56.4285 235.228C51.4285 185.93 64.2857 118.055 108.571 88.047Z" fill="#CB6CE6"/>
<path d="M378.571 358.832C372.857 358.832 367.857 358.117 362.143 357.403C333.571 351.687 310.714 333.111 289.286 315.249C284.286 311.677 280 307.39 275 303.818C251.429 285.241 216.429 265.95 185 277.382C168.571 283.812 155 297.387 142.143 311.677C125.714 328.824 109.286 346.686 85 348.829C67.1428 350.258 48.5714 341.685 38.5714 325.966C28.5714 310.962 27.8571 290.243 37.1428 274.524C37.8571 273.095 40 272.381 42.1428 273.095C43.5714 273.81 44.2857 275.953 43.5714 278.097C36.4285 291.671 36.4285 309.533 45 322.394C53.5714 335.254 69.2857 343.113 85 341.685C106.429 339.541 121.429 323.823 137.143 306.675C150.714 292.386 164.286 277.382 182.857 270.952C217.143 258.091 254.286 278.811 280 298.102C285 301.674 289.286 305.961 294.286 309.533C315.714 326.681 337.857 344.542 364.286 350.258C394.286 355.974 427.857 343.828 450 318.821C470 295.958 480.714 263.093 478.571 229.512C477.143 199.505 467.143 168.782 448.571 138.06C415 80.1878 360.714 36.605 299.286 18.0287C235.714 -1.26202 165.714 7.31165 110.714 40.1774C54.2857 73.7575 15 134.488 7.85711 198.076C7.85711 200.219 5.71425 201.648 3.5714 200.934C1.42854 200.934 -3.694e-05 198.79 0.714249 196.647C7.85711 130.915 48.5714 68.7562 106.429 33.7471C162.857 0.166931 235.714 -8.40674 300.714 10.884C363.571 30.1747 419.286 74.472 454.286 133.059C473.571 165.21 483.571 197.361 485 228.083C486.429 263.807 475.714 298.102 454.286 322.394C435 345.971 406.429 358.832 378.571 358.832Z" fill="white"/>
</svg>
